<mxfile host="app.diagrams.net" agent="Mozilla/5.0 (Windows NT 10.0; Win64; x64) AppleWebKit/537.36 (KHTML, like Gecko) Chrome/134.0.0.0 Safari/537.36" version="26.1.1">
  <diagram name="Page-1" id="929967ad-93f9-6ef4-fab6-5d389245f69c">
    <mxGraphModel grid="1" page="1" gridSize="10" guides="1" tooltips="1" connect="1" arrows="1" fold="1" pageScale="1.5" pageWidth="1169" pageHeight="826" background="none" math="0" shadow="0">
      <root>
        <mxCell id="0" style=";html=1;" />
        <mxCell id="1" style=";html=1;" parent="0" />
        <mxCell id="coT2_Wb_de4j4SJAKN4P-21" value="Tendik" style="swimlane;fontStyle=1;align=center;verticalAlign=top;childLayout=stackLayout;horizontal=1;startSize=26;horizontalStack=0;resizeParent=1;resizeParentMax=0;resizeLast=0;collapsible=1;marginBottom=0;whiteSpace=wrap;html=1;" vertex="1" parent="1">
          <mxGeometry x="400" y="480" width="200" height="200" as="geometry" />
        </mxCell>
        <mxCell id="coT2_Wb_de4j4SJAKN4P-22" value="- &lt;u&gt;BUP: integer = 55 {readOnly}&lt;/u&gt;&lt;div&gt;- &lt;u&gt;PersenTunjangan: double = 0.01&lt;/u&gt;&lt;/div&gt;&lt;div&gt;- BidangKerja: BidangKerja&lt;/div&gt;" style="text;strokeColor=none;fillColor=none;align=left;verticalAlign=top;spacingLeft=4;spacingRight=4;overflow=hidden;rotatable=0;points=[[0,0.5],[1,0.5]];portConstraint=eastwest;whiteSpace=wrap;html=1;" vertex="1" parent="coT2_Wb_de4j4SJAKN4P-21">
          <mxGeometry y="26" width="200" height="54" as="geometry" />
        </mxCell>
        <mxCell id="coT2_Wb_de4j4SJAKN4P-23" value="" style="line;strokeWidth=1;fillColor=none;align=left;verticalAlign=middle;spacingTop=-1;spacingLeft=3;spacingRight=3;rotatable=0;labelPosition=right;points=[];portConstraint=eastwest;strokeColor=inherit;" vertex="1" parent="coT2_Wb_de4j4SJAKN4P-21">
          <mxGeometry y="80" width="200" height="8" as="geometry" />
        </mxCell>
        <mxCell id="coT2_Wb_de4j4SJAKN4P-24" value="+ getBidangKerja(): String&lt;div&gt;+&amp;nbsp;&lt;u&gt;getBUP(): integer&lt;/u&gt;&lt;br&gt;&lt;div&gt;+ &lt;u&gt;getPersenTunjagan(): double&lt;/u&gt;&lt;/div&gt;&lt;div&gt;+ &lt;u&gt;setPersenTunjangan(pt : double)&lt;/u&gt;&lt;/div&gt;&lt;div&gt;+ getTunjangan(): double&lt;/div&gt;&lt;div&gt;+ getTanggalBUP(): Date&lt;/div&gt;&lt;div&gt;+ printInfo()&lt;/div&gt;&lt;/div&gt;" style="text;strokeColor=none;fillColor=none;align=left;verticalAlign=top;spacingLeft=4;spacingRight=4;overflow=hidden;rotatable=0;points=[[0,0.5],[1,0.5]];portConstraint=eastwest;whiteSpace=wrap;html=1;" vertex="1" parent="coT2_Wb_de4j4SJAKN4P-21">
          <mxGeometry y="88" width="200" height="112" as="geometry" />
        </mxCell>
        <mxCell id="coT2_Wb_de4j4SJAKN4P-25" value="Pegawai" style="swimlane;fontStyle=1;align=center;verticalAlign=top;childLayout=stackLayout;horizontal=1;startSize=26;horizontalStack=0;resizeParent=1;resizeParentMax=0;resizeLast=0;collapsible=1;marginBottom=0;whiteSpace=wrap;html=1;" vertex="1" parent="1">
          <mxGeometry x="640" y="80" width="160" height="260" as="geometry" />
        </mxCell>
        <mxCell id="coT2_Wb_de4j4SJAKN4P-26" value="- NIP: String {readOnly}&lt;div&gt;- Nama: String&lt;/div&gt;&lt;div&gt;- TanggalLahir: Date&lt;/div&gt;&lt;div&gt;- TMT: Date&lt;/div&gt;&lt;div&gt;- GajiPokok: double&lt;/div&gt;" style="text;strokeColor=none;fillColor=none;align=left;verticalAlign=top;spacingLeft=4;spacingRight=4;overflow=hidden;rotatable=0;points=[[0,0.5],[1,0.5]];portConstraint=eastwest;whiteSpace=wrap;html=1;" vertex="1" parent="coT2_Wb_de4j4SJAKN4P-25">
          <mxGeometry y="26" width="160" height="84" as="geometry" />
        </mxCell>
        <mxCell id="coT2_Wb_de4j4SJAKN4P-27" value="" style="line;strokeWidth=1;fillColor=none;align=left;verticalAlign=middle;spacingTop=-1;spacingLeft=3;spacingRight=3;rotatable=0;labelPosition=right;points=[];portConstraint=eastwest;strokeColor=inherit;" vertex="1" parent="coT2_Wb_de4j4SJAKN4P-25">
          <mxGeometry y="110" width="160" height="8" as="geometry" />
        </mxCell>
        <mxCell id="coT2_Wb_de4j4SJAKN4P-28" value="+ getNIP(): String&lt;div&gt;+ getNama(): String&lt;/div&gt;&lt;div&gt;+ getTanggallahir(): Date&lt;/div&gt;&lt;div&gt;+ getTMT(): Date&lt;/div&gt;&lt;div&gt;+ getGajiPokok(): double&lt;/div&gt;&lt;div&gt;+ setNama(nama: String)&lt;/div&gt;&lt;div&gt;+ setTMT(tmt: Date)&lt;/div&gt;&lt;div&gt;+ setGajiPokok(g: double)&lt;/div&gt;&lt;div&gt;+ getLamaKerja(): Period&lt;/div&gt;&lt;div&gt;&lt;br&gt;&lt;/div&gt;" style="text;strokeColor=none;fillColor=none;align=left;verticalAlign=top;spacingLeft=4;spacingRight=4;overflow=hidden;rotatable=0;points=[[0,0.5],[1,0.5]];portConstraint=eastwest;whiteSpace=wrap;html=1;" vertex="1" parent="coT2_Wb_de4j4SJAKN4P-25">
          <mxGeometry y="118" width="160" height="142" as="geometry" />
        </mxCell>
        <mxCell id="coT2_Wb_de4j4SJAKN4P-29" value="Dosen" style="swimlane;fontStyle=1;align=center;verticalAlign=top;childLayout=stackLayout;horizontal=1;startSize=26;horizontalStack=0;resizeParent=1;resizeParentMax=0;resizeLast=0;collapsible=1;marginBottom=0;whiteSpace=wrap;html=1;" vertex="1" parent="1">
          <mxGeometry x="880" y="480" width="160" height="100" as="geometry" />
        </mxCell>
        <mxCell id="coT2_Wb_de4j4SJAKN4P-30" value="- Fakultas: String" style="text;strokeColor=none;fillColor=none;align=left;verticalAlign=top;spacingLeft=4;spacingRight=4;overflow=hidden;rotatable=0;points=[[0,0.5],[1,0.5]];portConstraint=eastwest;whiteSpace=wrap;html=1;" vertex="1" parent="coT2_Wb_de4j4SJAKN4P-29">
          <mxGeometry y="26" width="160" height="26" as="geometry" />
        </mxCell>
        <mxCell id="coT2_Wb_de4j4SJAKN4P-31" value="" style="line;strokeWidth=1;fillColor=none;align=left;verticalAlign=middle;spacingTop=-1;spacingLeft=3;spacingRight=3;rotatable=0;labelPosition=right;points=[];portConstraint=eastwest;strokeColor=inherit;" vertex="1" parent="coT2_Wb_de4j4SJAKN4P-29">
          <mxGeometry y="52" width="160" height="8" as="geometry" />
        </mxCell>
        <mxCell id="coT2_Wb_de4j4SJAKN4P-32" value="+ getFakultas(): String&lt;div&gt;+ setFakultas(F : String)&lt;/div&gt;" style="text;strokeColor=none;fillColor=none;align=left;verticalAlign=top;spacingLeft=4;spacingRight=4;overflow=hidden;rotatable=0;points=[[0,0.5],[1,0.5]];portConstraint=eastwest;whiteSpace=wrap;html=1;" vertex="1" parent="coT2_Wb_de4j4SJAKN4P-29">
          <mxGeometry y="60" width="160" height="40" as="geometry" />
        </mxCell>
        <mxCell id="coT2_Wb_de4j4SJAKN4P-33" value="DosenTetap" style="swimlane;fontStyle=1;align=center;verticalAlign=top;childLayout=stackLayout;horizontal=1;startSize=26;horizontalStack=0;resizeParent=1;resizeParentMax=0;resizeLast=0;collapsible=1;marginBottom=0;whiteSpace=wrap;html=1;" vertex="1" parent="1">
          <mxGeometry x="640" y="680" width="200" height="200" as="geometry" />
        </mxCell>
        <mxCell id="coT2_Wb_de4j4SJAKN4P-34" value="- NIDN: String {readOnly}&lt;div&gt;- &lt;u&gt;BUP: integer = 65 {readOnly}&lt;/u&gt;&lt;/div&gt;&lt;div&gt;-&lt;u&gt; PersenTunjangan: double = 0.02&lt;/u&gt;&lt;/div&gt;" style="text;strokeColor=none;fillColor=none;align=left;verticalAlign=top;spacingLeft=4;spacingRight=4;overflow=hidden;rotatable=0;points=[[0,0.5],[1,0.5]];portConstraint=eastwest;whiteSpace=wrap;html=1;" vertex="1" parent="coT2_Wb_de4j4SJAKN4P-33">
          <mxGeometry y="26" width="200" height="54" as="geometry" />
        </mxCell>
        <mxCell id="coT2_Wb_de4j4SJAKN4P-35" value="" style="line;strokeWidth=1;fillColor=none;align=left;verticalAlign=middle;spacingTop=-1;spacingLeft=3;spacingRight=3;rotatable=0;labelPosition=right;points=[];portConstraint=eastwest;strokeColor=inherit;" vertex="1" parent="coT2_Wb_de4j4SJAKN4P-33">
          <mxGeometry y="80" width="200" height="8" as="geometry" />
        </mxCell>
        <mxCell id="coT2_Wb_de4j4SJAKN4P-36" value="+ getNIDN(): String&lt;div&gt;+ &lt;u&gt;getBUP(): integer&lt;/u&gt;&lt;br&gt;&lt;div&gt;+ &lt;u&gt;getPersenTunjangan(): double&lt;/u&gt;&lt;/div&gt;&lt;div&gt;+ &lt;u&gt;setPersenTunjangan(pt: double)&lt;/u&gt;&lt;/div&gt;&lt;div&gt;+ getTunjangan(): double&lt;/div&gt;&lt;div&gt;+ getTanggalBUP(): Date&lt;/div&gt;&lt;div&gt;+ printInfo()&lt;/div&gt;&lt;/div&gt;" style="text;strokeColor=none;fillColor=none;align=left;verticalAlign=top;spacingLeft=4;spacingRight=4;overflow=hidden;rotatable=0;points=[[0,0.5],[1,0.5]];portConstraint=eastwest;whiteSpace=wrap;html=1;" vertex="1" parent="coT2_Wb_de4j4SJAKN4P-33">
          <mxGeometry y="88" width="200" height="112" as="geometry" />
        </mxCell>
        <mxCell id="coT2_Wb_de4j4SJAKN4P-37" value="DosenTamu" style="swimlane;fontStyle=1;align=center;verticalAlign=top;childLayout=stackLayout;horizontal=1;startSize=26;horizontalStack=0;resizeParent=1;resizeParentMax=0;resizeLast=0;collapsible=1;marginBottom=0;whiteSpace=wrap;html=1;" vertex="1" parent="1">
          <mxGeometry x="1080" y="680" width="200" height="200" as="geometry" />
        </mxCell>
        <mxCell id="coT2_Wb_de4j4SJAKN4P-38" value="- NIDK: String {readOnly}&lt;div&gt;- AkhirKontrak: Date&lt;/div&gt;&lt;div&gt;- &lt;u&gt;PersenTunjangan: double = 0.025&lt;/u&gt;&lt;/div&gt;" style="text;strokeColor=none;fillColor=none;align=left;verticalAlign=top;spacingLeft=4;spacingRight=4;overflow=hidden;rotatable=0;points=[[0,0.5],[1,0.5]];portConstraint=eastwest;whiteSpace=wrap;html=1;" vertex="1" parent="coT2_Wb_de4j4SJAKN4P-37">
          <mxGeometry y="26" width="200" height="54" as="geometry" />
        </mxCell>
        <mxCell id="coT2_Wb_de4j4SJAKN4P-39" value="" style="line;strokeWidth=1;fillColor=none;align=left;verticalAlign=middle;spacingTop=-1;spacingLeft=3;spacingRight=3;rotatable=0;labelPosition=right;points=[];portConstraint=eastwest;strokeColor=inherit;" vertex="1" parent="coT2_Wb_de4j4SJAKN4P-37">
          <mxGeometry y="80" width="200" height="8" as="geometry" />
        </mxCell>
        <mxCell id="coT2_Wb_de4j4SJAKN4P-40" value="+ getNIDK(): String&lt;div&gt;+ getAkhirKontrak(): Date&lt;/div&gt;&lt;div&gt;+ &lt;u&gt;getPersenTunjangan(): double&lt;/u&gt;&lt;/div&gt;&lt;div&gt;+ setAkhirKontrak(ak: Date)&lt;/div&gt;&lt;div&gt;+ &lt;u&gt;setPersenTunjangan(pt: double)&lt;/u&gt;&lt;/div&gt;&lt;div&gt;+ getTunjangan(): double&lt;/div&gt;&lt;div&gt;+ printInfo()&lt;/div&gt;" style="text;strokeColor=none;fillColor=none;align=left;verticalAlign=top;spacingLeft=4;spacingRight=4;overflow=hidden;rotatable=0;points=[[0,0.5],[1,0.5]];portConstraint=eastwest;whiteSpace=wrap;html=1;" vertex="1" parent="coT2_Wb_de4j4SJAKN4P-37">
          <mxGeometry y="88" width="200" height="112" as="geometry" />
        </mxCell>
        <mxCell id="coT2_Wb_de4j4SJAKN4P-41" value="&lt;b&gt;&amp;lt;&amp;lt;dataType&amp;gt;&amp;gt;&lt;/b&gt;&lt;div&gt;&lt;b&gt;Period&lt;/b&gt;&lt;/div&gt;" style="swimlane;fontStyle=0;childLayout=stackLayout;horizontal=1;startSize=26;fillColor=none;horizontalStack=0;resizeParent=1;resizeParentMax=0;resizeLast=0;collapsible=1;marginBottom=0;whiteSpace=wrap;html=1;" vertex="1" parent="1">
          <mxGeometry x="840" y="240" width="120" height="80" as="geometry" />
        </mxCell>
        <mxCell id="coT2_Wb_de4j4SJAKN4P-42" value="Years: integer&lt;div&gt;Months: integer&lt;/div&gt;&lt;div&gt;Days: integer&lt;/div&gt;" style="text;strokeColor=none;fillColor=none;align=left;verticalAlign=top;spacingLeft=4;spacingRight=4;overflow=hidden;rotatable=0;points=[[0,0.5],[1,0.5]];portConstraint=eastwest;whiteSpace=wrap;html=1;" vertex="1" parent="coT2_Wb_de4j4SJAKN4P-41">
          <mxGeometry y="26" width="120" height="54" as="geometry" />
        </mxCell>
        <mxCell id="coT2_Wb_de4j4SJAKN4P-46" value="&lt;b&gt;&amp;lt;&amp;lt;enumeration&amp;gt;&amp;gt;&lt;/b&gt;&lt;div&gt;&lt;b&gt;BidangKerja&lt;/b&gt;&lt;/div&gt;" style="swimlane;fontStyle=0;childLayout=stackLayout;horizontal=1;startSize=26;fillColor=none;horizontalStack=0;resizeParent=1;resizeParentMax=0;resizeLast=0;collapsible=1;marginBottom=0;whiteSpace=wrap;html=1;" vertex="1" parent="1">
          <mxGeometry x="480" y="240" width="120" height="80" as="geometry" />
        </mxCell>
        <mxCell id="coT2_Wb_de4j4SJAKN4P-47" value="Akademik&lt;div&gt;Kemahasiswaan&lt;/div&gt;&lt;div&gt;Sumber Daya&lt;/div&gt;" style="text;strokeColor=none;fillColor=none;align=left;verticalAlign=top;spacingLeft=4;spacingRight=4;overflow=hidden;rotatable=0;points=[[0,0.5],[1,0.5]];portConstraint=eastwest;whiteSpace=wrap;html=1;" vertex="1" parent="coT2_Wb_de4j4SJAKN4P-46">
          <mxGeometry y="26" width="120" height="54" as="geometry" />
        </mxCell>
        <mxCell id="coT2_Wb_de4j4SJAKN4P-51" value="" style="endArrow=block;endSize=16;endFill=0;html=1;rounded=0;exitX=0.5;exitY=0;exitDx=0;exitDy=0;entryX=0.238;entryY=1.001;entryDx=0;entryDy=0;entryPerimeter=0;" edge="1" parent="1" source="coT2_Wb_de4j4SJAKN4P-21" target="coT2_Wb_de4j4SJAKN4P-28">
          <mxGeometry width="160" relative="1" as="geometry">
            <mxPoint x="590" y="520" as="sourcePoint" />
            <mxPoint x="750" y="520" as="targetPoint" />
          </mxGeometry>
        </mxCell>
        <mxCell id="coT2_Wb_de4j4SJAKN4P-54" value="" style="endArrow=block;endSize=16;endFill=0;html=1;rounded=0;exitX=0.5;exitY=0;exitDx=0;exitDy=0;entryX=0.833;entryY=1.007;entryDx=0;entryDy=0;entryPerimeter=0;" edge="1" parent="1" source="coT2_Wb_de4j4SJAKN4P-29" target="coT2_Wb_de4j4SJAKN4P-28">
          <mxGeometry width="160" relative="1" as="geometry">
            <mxPoint x="691" y="530" as="sourcePoint" />
            <mxPoint x="769" y="350" as="targetPoint" />
          </mxGeometry>
        </mxCell>
        <mxCell id="coT2_Wb_de4j4SJAKN4P-55" value="" style="endArrow=block;endSize=16;endFill=0;html=1;rounded=0;exitX=0.5;exitY=0;exitDx=0;exitDy=0;entryX=0.763;entryY=1.005;entryDx=0;entryDy=0;entryPerimeter=0;" edge="1" parent="1" source="coT2_Wb_de4j4SJAKN4P-37" target="coT2_Wb_de4j4SJAKN4P-32">
          <mxGeometry width="160" relative="1" as="geometry">
            <mxPoint x="1027" y="719" as="sourcePoint" />
            <mxPoint x="840" y="580" as="targetPoint" />
          </mxGeometry>
        </mxCell>
        <mxCell id="coT2_Wb_de4j4SJAKN4P-56" value="" style="endArrow=block;endSize=16;endFill=0;html=1;rounded=0;exitX=0.5;exitY=0;exitDx=0;exitDy=0;entryX=0.253;entryY=1.005;entryDx=0;entryDy=0;entryPerimeter=0;" edge="1" parent="1" source="coT2_Wb_de4j4SJAKN4P-33" target="coT2_Wb_de4j4SJAKN4P-32">
          <mxGeometry width="160" relative="1" as="geometry">
            <mxPoint x="770" y="570" as="sourcePoint" />
            <mxPoint x="592" y="471" as="targetPoint" />
          </mxGeometry>
        </mxCell>
        <mxCell id="coT2_Wb_de4j4SJAKN4P-58" value="&lt;b&gt;&amp;lt;&amp;lt;dataType&amp;gt;&amp;gt;&lt;/b&gt;&lt;div&gt;&lt;b&gt;Date&lt;/b&gt;&lt;/div&gt;" style="swimlane;fontStyle=0;childLayout=stackLayout;horizontal=1;startSize=26;fillColor=none;horizontalStack=0;resizeParent=1;resizeParentMax=0;resizeLast=0;collapsible=1;marginBottom=0;whiteSpace=wrap;html=1;" vertex="1" parent="1">
          <mxGeometry x="840" y="120" width="120" height="80" as="geometry" />
        </mxCell>
        <mxCell id="coT2_Wb_de4j4SJAKN4P-59" value="Year: int&lt;div&gt;Month: integer&lt;/div&gt;&lt;div&gt;Day: integer&lt;/div&gt;" style="text;strokeColor=none;fillColor=none;align=left;verticalAlign=top;spacingLeft=4;spacingRight=4;overflow=hidden;rotatable=0;points=[[0,0.5],[1,0.5]];portConstraint=eastwest;whiteSpace=wrap;html=1;" vertex="1" parent="coT2_Wb_de4j4SJAKN4P-58">
          <mxGeometry y="26" width="120" height="54" as="geometry" />
        </mxCell>
      </root>
    </mxGraphModel>
  </diagram>
</mxfile>
